<svg id="Шар_1" data-name="Шар 1" xmlns="http://www.w3.org/2000/svg" viewBox="0 0 881.48 279.14"><defs><style>.cls-1{fill:#09c2c2;}.cls-2{fill:#fff;}</style></defs><title>лого смарт</title><path class="cls-1" d="M191.47,220.1c17.67-10.29,29.58-24.42,35.79-43.33l.86.33c-.44,3.6-.48,7.32-1.42,10.78-1.56,5.77-2.82,11.64-5,17.23-8.08,20.31-20.44,36.75-41,46a54.12,54.12,0,0,1-34.9,3.52c-9.2-2.08-18-5.63-26.63-9.43A323.42,323.42,0,0,0,86.43,232.4a76.09,76.09,0,0,0-41.19-1.33,47,47,0,0,0-17.8,8.42c-.46.35-.78,1-1.56.76,4.18-11.3,22.18-28.61,50.31-30.63-8.75-1.55-17.44-.8-26,1.1-2.43.53-2.93-.15-3.07-2.29-1-16.1-2.14-32.19-3.16-48.28q-1.41-22.29-2.67-44.6c-.51-8.77-.9-17.56-1.43-26.33-.11-1.88.91-2.27,2.37-2.41l19.19-2c2.54-.26,5.35,0,7.54-1,2.41-1.15,1.64-4.42,2.21-6.7a94.75,94.75,0,0,1,8.4-22.45c8-14.77,20.14-24.46,36.38-29a73.15,73.15,0,0,1,28.3-2.17C155.29,24.78,165,29.18,172.14,38a45.36,45.36,0,0,1,9.3,20.53,96.13,96.13,0,0,1,1.68,12.28c.08,1.34.45,1.8,1.93,1.65,7.28-.76,14.57-1.38,21.86-2,.35,0,.7-.08,1.05-.1,4-.24,4.06-.17,3.57,3.81-1.88,15.25-3.45,30.54-5.76,45.72s-3.55,30.71-6.22,45.91c-2.14,12.19-3.48,24.46-5.49,36.64C193.13,208.05,192.33,213.7,191.47,220.1ZM109.56,80.17c5.42-.61,10.84-1.26,16.26-1.81,14.28-1.43,28.57-2.87,42.86-4.16,2.48-.23,3.25-1.24,3-3.53A64.49,64.49,0,0,0,168.9,58c-4.26-12.69-12.87-20.83-26.16-22.9-18.56-2.88-34.8,1.72-47.28,16.6-7.17,8.54-10.3,18.9-13.26,29.33-.36,1.27,0,1.92,1.63,1.67,6.24-.93,12.53-1.49,18.83-1.84C104.35,80.81,107.54,80.39,109.56,80.17Zm62,8.19c-5,3-7.12,10.19-4.54,15.09a8,8,0,0,0,7.7,4.13c6.88-.85,12.85-8,12.38-14.92a7.49,7.49,0,0,0-2.24-5.21c-.44-.41-.87-1-1.55-.83s-.63,1-.71,1.56c-.36,2.71-.68,5.42-1,8.13a7.6,7.6,0,0,1-3.9,5.69,4.1,4.1,0,0,1-6.42-3.13,15.72,15.72,0,0,1,.17-3.68A27.79,27.79,0,0,0,171.59,88.36ZM72.22,118.21a10,10,0,0,0,10.43-5.58c2.35-4.53,2-10.1-.86-13.32-.35-.39-.66-1-1.23-.87-.78.15-.6,1-.75,1.52-.66,2.53.21,5.08,0,7.61-.31,3.63-3.2,6.52-6.21,6.39-2.84-.13-5.16-2.89-5.34-6.55-.11-2.27,0-4.55,0-6.83,0-.69.3-1.64-.42-1.93-.87-.34-1.27.68-1.85,1.16-1.72,1.39-1.31,3.38-1.49,5.17C63.65,113.2,65.47,117.41,72.22,118.21Z"/><path class="cls-1" d="M231.53,125.16c-2.25,10.5-4.81,20.92-7.43,31.33-3,11.86-5.63,23.81-8.3,35.75a15.72,15.72,0,0,1-4.64,8.63,130,130,0,0,1-12.23,10.5c-.76.55-1.55,1.54-2.55,1s-.54-1.77-.4-2.69c2.87-19.11,4.82-38.34,7.7-57.44,3.74-24.78,6.88-49.63,10.11-74.48.15-1.19-.33-3.18,1.3-3.31,1.31-.1,1.25,1.87,1.67,3,1.5,3.95,2.83,8,4.39,11.9a11.7,11.7,0,0,1,.65,5.94q-2.66,21-5,42c1.07-7.41,3-14.63,4.56-22,1.31-6.39,2.7-12.76,4-19.15a2.83,2.83,0,0,1,2.61-2.51c2.86-.48,5.71-1,8.56-1.59,2.36-.45,2.94,0,2.4,2.47-1,4.46-2.26,8.86-3.15,13.34C234.65,113.37,231.66,124.53,231.53,125.16Z"/><path d="M357.52,65.43c13.22,0,26.44.09,39.65-.06,3.39,0,4.65,1.06,4.52,4.48-.21,5.42-.2,10.86,0,16.28.12,3.38-1.14,4.54-4.53,4.52-25.61-.1-51.22-.06-76.83,0-9.46,0-16.47,5.58-18.67,14.7-2.46,10.22,5.57,21.76,16.09,22.48,13.31.91,26.66.41,40,.3,22.82-.19,39.21,16.83,42.82,34.39a44.21,44.21,0,0,1-28.06,51.14,49.76,49.76,0,0,1-16.34,2.56c-25.13.08-50.27,0-75.41,0-4.75,0-5-.27-5-5q0-7.62,0-15.23c0-4.93,0-5,4.89-5q36.11,0,72.22,0c2.23,0,4.48-.14,6.7-.37,10.45-1.11,17.35-9.06,16.94-19.46a18.8,18.8,0,0,0-18.69-18c-12.51-.16-25-.27-37.53,0-23.26.52-40.37-18.08-43.4-35.46C272.18,90.88,290.19,71.73,307.77,67a41.45,41.45,0,0,1,10.81-1.61Q338.05,65.45,357.52,65.43Z"/><path class="cls-2" d="M136.26,124.68c5.78,0,11.57,0,17.35,0,1.48,0,2,.47,2,2-.09,2.37-.08,4.75,0,7.12,0,1.48-.5,2-2,2q-16.8-.06-33.61,0a8,8,0,0,0-8.16,6.43c-1.08,4.46,2.44,9.51,7,9.83,5.82.39,11.66.18,17.49.13a19.08,19.08,0,0,1,18.72,15,19.33,19.33,0,0,1-12.27,22.37,22,22,0,0,1-7.14,1.12c-11,0-22,0-33,0-2.08,0-2.19-.12-2.2-2.19v-6.66c0-2.16,0-2.17,2.14-2.17h31.59a26,26,0,0,0,2.93-.17,8,8,0,0,0,7.41-8.51,8.23,8.23,0,0,0-8.18-7.89c-5.47-.07-10.94-.12-16.41,0-10.17.23-17.66-7.91-19-15.51a19.22,19.22,0,0,1,13.52-22.14,18.47,18.47,0,0,1,4.73-.7Z"/><path d="M424.66,140.29V70.2c0-4.66.11-4.76,4.75-4.77,6.37,0,12.75.13,19.12-.06,2.76-.08,4.25.9,5.46,3.36,10.29,20.81,20.7,41.56,31.07,62.34a4.71,4.71,0,0,0,.33.63c1,1.32.93,3.79,3.23,3.73,2.07-.05,2.25-2.22,2.94-3.6,10.27-20.43,20.59-40.84,30.6-61.4,1.89-3.88,4.06-5.39,8.35-5.1,5.75.39,11.55.08,17.33.11,4.35,0,4.83.8,2.83,4.8q-21.13,42.21-42.31,84.39c-5.65,11.27-11.26,22.57-16.92,33.84-.65,1.3-.95,3.14-2.94,3.11s-2.25-1.87-2.91-3.17q-16.05-31.9-32.07-63.83c-.37-.73-.77-1.45-1.21-2.15a1.25,1.25,0,0,0-1.47-.69,1.32,1.32,0,0,0-.91,1.36c-.08,1.18-.09,2.36-.09,3.54q0,41.94,0,83.9c0,5.26,0,5.26-5.38,5.27-5.07,0-10.15,0-15.22,0-4.23,0-4.56-.36-4.57-4.72Z"/><path d="M637.69,65.43h29.38c28.19,0,51.08,24.44,49.3,52.59-1.39,21.88-14,37.77-34.88,43.91-3.52,1-3.85,1.8-2.07,5.38q10.8,21.69,21.63,43.35c2.46,4.93,2.07,5.55-3.57,5.55-6.13,0-12.27-.06-18.41,0a4.84,4.84,0,0,1-5-3.1q-16.9-34.05-33.93-68c-1.68-3.36-1.14-4.22,2.56-4.25,7.67,0,15.35.12,23-.05,17.93-.4,30.14-17.46,24.18-33.64a25.74,25.74,0,0,0-23.73-16.57c-16.52,0-33-.08-49.56,0-2.93,0-4.5-1-5.7-3.57-2.53-5.46-5.33-10.78-8-16.17-2.42-4.9-2.07-5.49,3.22-5.49Q621.93,65.41,637.69,65.43Z"/><path d="M791.41,65h56.65c6.08,0,6.08,0,6.09,6.25,0,5-.12,9.91,0,14.87.1,3.12-1.25,4.14-4.22,4.13-13.69-.08-27.38,0-41.07,0-4.53,0-4.83.29-4.83,4.83q0,57.35,0,114.7c0,5.65,0,5.65-5.68,5.66-5,0-9.91,0-14.87,0-4.3,0-4.61-.31-4.62-4.64q0-42.48,0-85c0-10.39-.11-20.77.05-31.15,0-3.41-1.15-4.53-4.52-4.49-13.57.14-27.14.06-40.71.05-4.4,0-4.79-.42-4.81-4.91,0-5.31.17-10.63-.06-15.93-.15-3.46,1.19-4.44,4.52-4.42C752.71,65,772.06,65,791.41,65Z"/><polygon class="cls-1" points="502.45 213.85 575.96 67.62 626.31 163.91 597.94 164.71 575.96 121.96 531.22 213.85 502.45 213.85"/><polygon class="cls-1" points="611.12 190.68 639.09 190.68 651.48 216.25 622.71 216.25 611.12 190.68"/></svg>